<?xml version="1.0" encoding="iso-8859-1"?>
<!-- Generator: Adobe Illustrator 19.0.0, SVG Export Plug-In . SVG Version: 6.00 Build 0)  -->
<svg version="1.1" id="Capa_1" xmlns="http://www.w3.org/2000/svg" xmlns:xlink="http://www.w3.org/1999/xlink" x="0px" y="0px"
	 viewBox="0 0 512 512" style="enable-background:new 0 0 512 512;" xml:space="preserve">
<path style="fill:#F3F1F1;" d="M504,24H8c-4.418,0-8,3.582-8,8v448c0,4.418,3.582,8,8,8h496c4.418,0,8-3.582,8-8V32
	C512,27.582,508.418,24,504,24z"/>
<path style="fill:#E6E3E2;" d="M24,480V32c0-4.418,3.582-8,8-8H8c-4.418,0-8,3.582-8,8v448c0,4.418,3.582,8,8,8h24
	C27.582,488,24,484.418,24,480z"/>
<path style="fill:#C4A0DE;" d="M504,24H8c-4.418,0-8,3.582-8,8v64h512V32C512,27.582,508.418,24,504,24z"/>
<path style="fill:#AE85CC;" d="M32,24H8c-4.418,0-8,3.582-8,8v64h24V32C24,27.582,27.582,24,32,24z"/>
<path style="fill:#A89C9A;" d="M280,376h-48c-17.645,0-32,14.355-32,32s14.355,32,32,32h48c17.645,0,32-14.355,32-32
	S297.645,376,280,376z"/>
<path style="fill:#9B8E8B;" d="M288,424h-48c-17.645,0-32-14.355-32-32c0-1.95,0.185-3.857,0.521-5.713
	C203.237,391.997,200,399.626,200,408c0,17.645,14.355,32,32,32h48c15.695,0,28.777-11.36,31.479-26.287
	C305.63,420.033,297.271,424,288,424z"/>
<path style="fill:#CDC6C5;" d="M384,184H128c-4.418,0-8,3.582-8,8v160c0,4.418,3.582,8,8,8h256c4.418,0,8-3.582,8-8V192
	C392,187.582,388.418,184,384,184z"/>
<rect x="136" y="200" style="fill:#DAD5D4;" width="240" height="144"/>
<g>
	<path style="fill:#9968BD;" d="M440,72h-1c-4.418,0-8-3.582-8-8s3.582-8,8-8h1c4.418,0,8,3.582,8,8S444.418,72,440,72z"/>
	<path style="fill:#9968BD;" d="M472,72h-1c-4.418,0-8-3.582-8-8s3.582-8,8-8h1c4.418,0,8,3.582,8,8S476.418,72,472,72z"/>
	<path style="fill:#9968BD;" d="M407,72h-1c-4.418,0-8-3.582-8-8s3.582-8,8-8h1c4.418,0,8,3.582,8,8S411.418,72,407,72z"/>
</g>
<path style="fill:#FFC44F;" d="M469.657,395.716l-50.912-50.912l28.284-28.285c4.269-4.269,2.257-11.79-3.552-13.375
	l-124.451-33.941c-5.862-1.598-11.422,3.961-9.823,9.823l33.941,124.451c1.585,5.808,9.106,7.823,13.375,3.552l28.285-28.284
	l50.912,50.912c3.082,3.082,8.231,3.082,11.313,0l22.627-22.627C472.781,403.905,472.781,398.84,469.657,395.716z"/>
<path style="fill:#FFB357;" d="M447.716,417.657l-50.912-50.912l-28.285,28.284c-4.269,4.271-11.79,2.257-13.375-3.552
	L322.02,270.02l-2.993-0.816c-5.862-1.598-11.422,3.961-9.823,9.823l33.941,124.451c1.585,5.808,9.106,7.823,13.375,3.552
	l28.285-28.284l50.912,50.912c3.082,3.082,8.231,3.082,11.313,0l12-12C455.947,420.739,450.798,420.739,447.716,417.657z"/>
<g>
	<path style="fill:#CDC6C5;" d="M288,168H128c-4.418,0-8-3.582-8-8s3.582-8,8-8h160c4.418,0,8,3.582,8,8S292.418,168,288,168z"/>
	<path style="fill:#CDC6C5;" d="M392,168h-72c-4.418,0-8-3.582-8-8s3.582-8,8-8h72c4.418,0,8,3.582,8,8S396.418,168,392,168z"/>
</g>
<g>
</g>
<g>
</g>
<g>
</g>
<g>
</g>
<g>
</g>
<g>
</g>
<g>
</g>
<g>
</g>
<g>
</g>
<g>
</g>
<g>
</g>
<g>
</g>
<g>
</g>
<g>
</g>
<g>
</g>
</svg>
