<?xml version="1.0" encoding="UTF-8" standalone="no"?>
<!DOCTYPE svg PUBLIC "-//W3C//DTD SVG 1.1//EN" "http://www.w3.org/Graphics/SVG/1.1/DTD/svg11.dtd">
<svg version="1.1" xmlns="http://www.w3.org/2000/svg" xmlns:xlink="http://www.w3.org/1999/xlink" preserveAspectRatio="xMidYMid meet" viewBox="15.99990994684065 7.749759914072403 480.00009005315934 488.2502400859275" width="480" height="488.25"><defs><path d="M120 264L144 264L144 280L120 280L120 264Z" id="d6OfoAUqI"></path><path d="M176 304L200 304L200 320L176 320L176 304Z" id="j2UjkNN2lW"></path><path d="M56 304L104 304L104 320L56 320L56 304Z" id="i1XFSMmc13"></path><path d="M120 304L160 304L160 320L120 320L120 304Z" id="e3T9jGz3gn"></path><path d="M56 384L136 384L136 400L56 400L56 384Z" id="a111ZYissm"></path><path d="M56 344L88 344L88 360L56 360L56 344Z" id="b18NbNAyPi"></path><path d="M104 344L200 344L200 360L104 360L104 344Z" id="ffU5yc8ET"></path><path d="M104 424L152 424L152 440L104 440L104 424Z" id="e47I98buL0"></path><path d="M480 240C480 235.58 476.42 232 472 232C467.2 232 428.8 232 424 232C419.58 232 416 235.58 416 240C416 242.67 416 256 416 280C392 280 378.67 280 376 280C371.58 280 368 283.58 368 288C368 290.67 368 304 368 328C344 328 330.67 328 328 328C323.58 328 320 331.58 320 336C320 338.67 320 352 320 376C296 376 282.67 376 280 376C275.58 376 272 379.58 272 384C272 387.2 272 403.2 272 432C237.57 432 218.45 432 214.62 432C210.21 419.5 196.49 412.95 184 417.37C171.5 421.79 164.95 435.5 169.37 448C173.79 460.5 187.5 467.05 200 462.63C206.83 460.21 212.21 454.83 214.62 448C215.25 448 218.37 448 224 448C224 462.4 224 470.4 224 472C223.99 476.42 220.42 479.99 216 480C198.4 480 57.6 480 40 480C35.58 479.99 32.01 476.42 32 472C32 459.73 32 398.4 32 288C56 288 69.33 288 72 288C85.25 287.98 95.98 277.25 96 264C96 261.33 96 248 96 224C168 224 208 224 216 224C220.42 224.01 223.99 227.58 224 232C224 232.53 224 235.2 224 240L240 240C240 235.2 240 232.53 240 232C239.98 218.75 229.25 208.02 216 208C203.86 208 106.76 208 94.63 208C88.26 207.98 82.15 210.51 77.66 215.03C72.19 220.49 28.49 264.19 23.03 269.66C18.51 274.15 15.98 280.26 16 286.63C16 305.16 16 453.46 16 472C16.02 485.25 26.75 495.98 40 496C57.6 496 198.4 496 216 496C229.25 495.98 239.98 485.25 240 472C240 470.4 240 462.4 240 448L496 448L496 432L480 432C480 329.6 480 265.6 480 240ZM80 235.31C80 252.53 80 262.09 80 264C79.99 268.42 76.42 271.99 72 272C70.09 272 60.53 272 43.31 272L80 235.31ZM184 440C184 435.58 187.58 432 192 432C196.42 432 200 435.58 200 440C199.99 444.42 196.42 447.99 192 448C187.58 448 184 444.42 184 440ZM288 392L320 392L320 432L288 432L288 392ZM336 344L368 344L368 432L336 432L336 344ZM384 296L416 296L416 432L384 432L384 296ZM432 432L432 248L464 248L464 432L432 432Z" id="a43r7pElSh"></path><path d="M276.1 248.25C234.06 248.25 210.71 248.25 206.03 248.25C201.62 235.75 187.9 229.2 175.41 233.62C162.91 238.04 156.36 251.75 160.78 264.25C165.2 276.75 178.91 283.3 191.41 278.88C198.24 276.46 203.62 271.08 206.03 264.25C207.19 264.25 212.99 264.25 223.41 264.25L223.41 408.25L239.41 408.25L239.41 264.25C263.41 264.25 276.74 264.25 279.41 264.25C281.53 264.25 283.57 263.41 285.07 261.91C290.84 256.13 337.03 209.94 342.81 204.17C393.68 231.17 456.81 211.82 483.81 160.94C510.81 110.07 491.46 46.94 440.58 19.94C389.71 -7.06 326.58 12.29 299.58 63.17C275.54 108.47 288 164.53 328.98 195.37C328.98 195.37 311.35 213 276.1 248.25ZM175.41 256.25C175.41 251.83 178.99 248.25 183.41 248.25C187.83 248.25 191.41 251.83 191.41 256.25C191.41 260.67 187.83 264.25 183.41 264.25C178.99 264.25 175.41 260.67 175.41 256.25ZM409.23 120.25C451.12 120.25 474.39 120.25 479.04 120.25C477.27 139.77 469.01 158.13 455.58 172.4C449.4 165.45 433.95 148.06 409.23 120.25ZM399.41 104.25C399.41 56.47 399.41 29.93 399.41 24.62C441.66 28.53 475.13 62 479.04 104.25C468.43 104.25 441.88 104.25 399.41 104.25ZM383.41 112.25C383.41 114.21 384.13 116.1 385.44 117.56C385.44 117.56 385.44 117.56 385.43 117.57C420.35 156.85 439.75 178.67 443.63 183.04C404.53 211.89 349.44 203.57 320.59 164.47C291.75 125.37 300.06 70.29 339.16 41.44C352.1 31.89 367.4 26.08 383.41 24.62C383.41 42.14 383.41 103.49 383.41 112.25Z" id="a4naG0sCs"></path><path d="M152 384L200 384L200 400L152 400L152 384Z" id="bvJGEczfa"></path><path d="M56 424L88 424L88 440L56 440L56 424Z" id="a15DtSYP6f"></path></defs><g><g><g><g><use xlink:href="#d6OfoAUqI" opacity="1" fill="#000000" fill-opacity="0.04"></use><g><use xlink:href="#d6OfoAUqI" opacity="1" fill-opacity="0" stroke="#000000" stroke-width="1" stroke-opacity="0"></use></g></g><g><use xlink:href="#j2UjkNN2lW" opacity="1" fill="#000000" fill-opacity="0.04"></use><g><use xlink:href="#j2UjkNN2lW" opacity="1" fill-opacity="0" stroke="#000000" stroke-width="1" stroke-opacity="0"></use></g></g><g><use xlink:href="#i1XFSMmc13" opacity="1" fill="#000000" fill-opacity="0.04"></use><g><use xlink:href="#i1XFSMmc13" opacity="1" fill-opacity="0" stroke="#000000" stroke-width="1" stroke-opacity="0"></use></g></g><g><use xlink:href="#e3T9jGz3gn" opacity="1" fill="#000000" fill-opacity="0.04"></use><g><use xlink:href="#e3T9jGz3gn" opacity="1" fill-opacity="0" stroke="#000000" stroke-width="1" stroke-opacity="0"></use></g></g><g><use xlink:href="#a111ZYissm" opacity="1" fill="#000000" fill-opacity="0.04"></use><g><use xlink:href="#a111ZYissm" opacity="1" fill-opacity="0" stroke="#000000" stroke-width="1" stroke-opacity="0"></use></g></g><g><use xlink:href="#b18NbNAyPi" opacity="1" fill="#000000" fill-opacity="0.04"></use><g><use xlink:href="#b18NbNAyPi" opacity="1" fill-opacity="0" stroke="#000000" stroke-width="1" stroke-opacity="0"></use></g></g><g><use xlink:href="#ffU5yc8ET" opacity="1" fill="#000000" fill-opacity="0.04"></use><g><use xlink:href="#ffU5yc8ET" opacity="1" fill-opacity="0" stroke="#000000" stroke-width="1" stroke-opacity="0"></use></g></g><g><use xlink:href="#e47I98buL0" opacity="1" fill="#000000" fill-opacity="0.04"></use><g><use xlink:href="#e47I98buL0" opacity="1" fill-opacity="0" stroke="#000000" stroke-width="1" stroke-opacity="0"></use></g></g><g><g><use xlink:href="#a43r7pElSh" opacity="1" fill="#000000" fill-opacity="0.04"></use><g><use xlink:href="#a43r7pElSh" opacity="1" fill-opacity="0" stroke="#000000" stroke-width="0" stroke-opacity="0"></use></g></g><g><use xlink:href="#a4naG0sCs" opacity="1" fill="#000000" fill-opacity="0.04"></use><g><use xlink:href="#a4naG0sCs" opacity="1" fill-opacity="0" stroke="#000000" stroke-width="0" stroke-opacity="0"></use></g></g></g></g><g><use xlink:href="#bvJGEczfa" opacity="1" fill="#000000" fill-opacity="0.04"></use><g><use xlink:href="#bvJGEczfa" opacity="1" fill-opacity="0" stroke="#000000" stroke-width="1" stroke-opacity="0"></use></g></g><g><use xlink:href="#a15DtSYP6f" opacity="1" fill="#000000" fill-opacity="0.04"></use><g><use xlink:href="#a15DtSYP6f" opacity="1" fill-opacity="0" stroke="#000000" stroke-width="1" stroke-opacity="0"></use></g></g></g></g></svg>